<?xml version="1.0" encoding="iso-8859-1"?>
<!-- Generator: Adobe Illustrator 19.0.0, SVG Export Plug-In . SVG Version: 6.00 Build 0)  -->
<svg version="1.1" id="Capa_1" xmlns="http://www.w3.org/2000/svg" xmlns:xlink="http://www.w3.org/1999/xlink" x="0px" y="0px"
	 viewBox="0 0 504.123 504.123" style="enable-background:new 0 0 504.123 504.123;" xml:space="preserve">
<path style="fill:#FBBD5E;" d="M7.877,145.329h438.745v278.843c0,11.815-9.452,21.268-21.268,21.268H29.145
	c-11.815,0-21.268-9.452-21.268-21.268C7.877,424.172,7.877,145.329,7.877,145.329z"/>
<path style="fill:#183651;" d="M425.354,453.317H29.145C13.391,453.317,0,439.926,0,424.172V145.329
	c0-4.726,3.151-7.877,7.877-7.877h438.745c4.726,0,7.877,3.151,7.877,7.877v278.843
	C454.498,439.926,441.108,453.317,425.354,453.317z M15.754,153.206v270.966c0,7.089,6.302,13.391,13.391,13.391h396.209
	c7.089,0,13.391-6.302,13.391-13.391V153.206H15.754z"/>
<rect x="39.385" y="176.837" style="fill:#FFFFFF;" width="375.729" height="236.308"/>
<path style="fill:#E1E6E7;" d="M7.877,145.329h438.745V75.225c0-11.815-9.452-21.268-21.268-21.268H29.145
	c-11.815,0-21.268,9.452-21.268,21.268C7.877,75.225,7.877,145.329,7.877,145.329z"/>
<path style="fill:#183651;" d="M446.622,153.206H7.877c-4.726,0-7.877-3.151-7.877-7.877V75.225C0,59.471,13.391,46.08,29.145,46.08
	h396.209c15.754,0,29.145,13.391,29.145,29.145v70.105C454.498,150.055,450.56,153.206,446.622,153.206z M15.754,137.452h422.991
	V75.225c0-7.089-6.302-13.391-13.391-13.391H29.145c-7.089,0-13.391,6.302-13.391,13.391
	C15.754,75.225,15.754,137.452,15.754,137.452z"/>
<path style="fill:#FFFFFF;" d="M377.305,10.634c-12.603,0-22.843,10.24-22.843,22.843v41.748c0,12.603,10.24,22.843,22.843,22.843
	c12.603,0,22.843-10.24,22.843-22.843V32.689C400.148,20.874,389.908,10.634,377.305,10.634z"/>
<path style="fill:#183651;" d="M377.305,105.945c-16.542,0-30.72-13.391-30.72-30.72V32.689c0-16.542,13.391-30.72,30.72-30.72
	c17.329,0,30.72,13.391,30.72,30.72v42.535C408.025,91.766,394.634,105.945,377.305,105.945z M377.305,18.511
	c-7.877,0-14.966,6.302-14.966,14.966v41.748c0,7.877,6.302,14.966,14.966,14.966s14.966-6.302,14.966-14.966V32.689
	C392.271,24.812,385.969,18.511,377.305,18.511z"/>
<path style="fill:#FFFFFF;" d="M277.268,10.634c-12.603,0-22.843,10.24-22.843,22.843v41.748c0,12.603,10.24,22.843,22.843,22.843
	c12.603,0,22.843-10.24,22.843-22.843V32.689C300.111,20.874,289.871,10.634,277.268,10.634z"/>
<path style="fill:#183651;" d="M277.268,105.945c-16.542,0-30.72-13.391-30.72-30.72V32.689c0-16.542,13.391-30.72,30.72-30.72
	s30.72,13.391,30.72,30.72v42.535C307.988,91.766,293.809,105.945,277.268,105.945z M277.268,18.511
	c-7.877,0-14.966,6.302-14.966,14.966v41.748c0,7.877,6.302,14.966,14.966,14.966s14.966-6.302,14.966-14.966V32.689
	C292.234,24.812,285.145,18.511,277.268,18.511z"/>
<path style="fill:#FFFFFF;" d="M177.231,10.634c-12.603,0-22.843,10.24-22.843,22.843v41.748c0,12.603,10.24,22.843,22.843,22.843
	c12.603,0,22.843-10.24,22.843-22.843V32.689C199.286,20.874,189.834,10.634,177.231,10.634z"/>
<path style="fill:#183651;" d="M177.231,105.945c-16.542,0-30.72-13.391-30.72-30.72V32.689c0-16.542,13.391-30.72,30.72-30.72
	s30.72,13.391,30.72,30.72v42.535C207.163,91.766,193.772,105.945,177.231,105.945z M177.231,18.511
	c-7.877,0-14.966,6.302-14.966,14.966v41.748c0,7.877,6.302,14.966,14.966,14.966c8.665,0,14.966-6.302,14.966-14.966V32.689
	C191.409,24.812,185.108,18.511,177.231,18.511z"/>
<path style="fill:#FFFFFF;" d="M77.194,10.634c-12.603,0-22.843,10.24-22.843,22.843v41.748c0,12.603,10.24,22.843,22.843,22.843
	s22.843-10.24,22.843-22.843V32.689C99.249,20.874,89.009,10.634,77.194,10.634z"/>
<path style="fill:#183651;" d="M77.194,105.945c-16.542,0-30.72-13.391-30.72-30.72V32.689c0-16.542,13.391-30.72,30.72-30.72
	s30.72,13.391,30.72,30.72v42.535C107.126,91.766,93.735,105.945,77.194,105.945z M77.194,18.511
	c-7.877,0-14.966,6.302-14.966,14.966v41.748c0,7.877,6.302,14.966,14.966,14.966S92.16,83.889,92.16,75.225V32.689
	C91.372,24.812,85.071,18.511,77.194,18.511z"/>
<circle style="fill:#4FBF9F;" cx="382.031" cy="380.062" r="114.215"/>
<path style="fill:#183651;" d="M382.031,502.154c-67.742,0-122.092-55.138-122.092-122.092c0-67.742,55.138-122.092,122.092-122.092
	s122.092,55.138,122.092,122.092C504.123,447.803,448.985,502.154,382.031,502.154z M382.031,272.935
	c-59.077,0-106.338,48.049-106.338,106.338S322.954,486.4,382.031,486.4s106.338-48.049,106.338-106.338
	S440.32,272.935,382.031,272.935z"/>
<g>
	<circle style="fill:#2CA0DA;" cx="79.557" cy="213.071" r="17.329"/>
	<circle style="fill:#2CA0DA;" cx="138.634" cy="213.071" r="17.329"/>
	<circle style="fill:#2CA0DA;" cx="197.711" cy="213.071" r="17.329"/>
	<circle style="fill:#2CA0DA;" cx="256.788" cy="213.071" r="17.329"/>
	<circle style="fill:#2CA0DA;" cx="315.865" cy="213.071" r="17.329"/>
	<circle style="fill:#2CA0DA;" cx="374.942" cy="213.071" r="17.329"/>
	<circle style="fill:#2CA0DA;" cx="79.557" cy="265.058" r="17.329"/>
	<circle style="fill:#2CA0DA;" cx="138.634" cy="265.058" r="17.329"/>
	<circle style="fill:#2CA0DA;" cx="197.711" cy="265.058" r="17.329"/>
	<circle style="fill:#2CA0DA;" cx="256.788" cy="265.058" r="17.329"/>
	<circle style="fill:#2CA0DA;" cx="79.557" cy="317.834" r="17.329"/>
	<circle style="fill:#2CA0DA;" cx="138.634" cy="317.834" r="17.329"/>
	<circle style="fill:#2CA0DA;" cx="197.711" cy="317.834" r="17.329"/>
	<circle style="fill:#2CA0DA;" cx="79.557" cy="369.822" r="17.329"/>
	<circle style="fill:#2CA0DA;" cx="138.634" cy="369.822" r="17.329"/>
	<circle style="fill:#2CA0DA;" cx="197.711" cy="369.822" r="17.329"/>
</g>
<path style="fill:#FFFFFF;" d="M382.031,466.708c-47.262,0-86.646-38.597-86.646-86.646s38.597-86.646,86.646-86.646
	s86.646,38.597,86.646,86.646S429.292,466.708,382.031,466.708z"/>
<g>
	<path style="fill:#F06151;" d="M382.031,318.622c-7.089,0-12.603,5.514-11.815,12.603l3.938,74.831
		c0,3.938,3.151,7.089,7.089,7.089c3.938,0,7.089-3.151,7.089-7.089l4.726-74.831C393.846,324.135,388.332,318.622,382.031,318.622z
		"/>
	<circle style="fill:#F06151;" cx="382.031" cy="432.837" r="8.665"/>
</g>
<g>
	<rect x="421.415" y="344.615" style="fill:#183651;" width="18.117" height="15.754"/>
	<rect x="421.415" y="399.754" style="fill:#183651;" width="18.117" height="15.754"/>
	<rect x="323.742" y="344.615" style="fill:#183651;" width="18.117" height="15.754"/>
	<rect x="323.742" y="399.754" style="fill:#183651;" width="18.117" height="15.754"/>
</g>
<g>
</g>
<g>
</g>
<g>
</g>
<g>
</g>
<g>
</g>
<g>
</g>
<g>
</g>
<g>
</g>
<g>
</g>
<g>
</g>
<g>
</g>
<g>
</g>
<g>
</g>
<g>
</g>
<g>
</g>
</svg>
