<?xml version="1.0" encoding="iso-8859-1"?>
<!-- Generator: Adobe Illustrator 19.0.0, SVG Export Plug-In . SVG Version: 6.00 Build 0)  -->
<svg version="1.1" id="Layer_1" xmlns="http://www.w3.org/2000/svg" xmlns:xlink="http://www.w3.org/1999/xlink" x="0px" y="0px"
	 viewBox="0 0 482.204 482.204" style="enable-background:new 0 0 482.204 482.204;" xml:space="preserve">
<path style="fill:#64798A;" d="M427.992,45.638H54.533c-7.228,0-12.649,5.421-12.649,12.649V273.93
	c0,7.228,5.421,12.649,12.649,12.649h373.459c7.228,0,12.649-5.421,12.649-12.649V58.288
	C440.642,51.06,434.618,45.638,427.992,45.638z"/>
<path style="fill:#EBF0F3;" d="M427.992,290.796H54.533c-7.228,0-13.252,2.409-14.456,5.421L0.322,414.278
	c-1.807,4.819,4.216,8.433,12.649,8.433h455.981c8.433,0,13.854-3.614,12.649-8.433l-39.755-118.061
	C441.244,293.206,434.618,290.796,427.992,290.796z"/>
<g>
	<path style="fill:#E1E6E9;" d="M482.204,416.086c-0.602,3.614-5.421,6.024-12.649,6.024H12.971c-7.831,0-12.649-3.012-12.649-7.228
		l0,0v15.059l0,0c0,3.614,5.421,6.626,12.649,6.626h455.981c7.228,0,12.649-3.012,12.649-6.626l0,0L482.204,416.086L482.204,416.086
		z"/>
	<path style="fill:#E1E6E9;" d="M420.162,301.036H62.364h-0.602L44.896,358.26c0,0,0,0,0.602,0h391.529h0.602L420.162,301.036
		C420.764,301.036,420.162,301.036,420.162,301.036z"/>
	<path style="fill:#E1E6E9;" d="M309.931,366.09H172.595c-4.819,0-9.035,1.807-9.035,4.216l-3.614,33.129
		c-0.602,3.012,3.614,4.819,9.035,4.819H314.75c5.421,0,9.035-2.409,9.035-4.819l-3.614-33.129
		C318.966,367.897,314.75,366.09,309.931,366.09z"/>
</g>
<path style="fill:#3A556A;" d="M399.682,279.351H82.844c-0.602,0-1.205,0.602-1.205,0.602v16.264c0,0.602,0.602,0.602,1.205,0.602
	h317.44c0.602,0,1.205-0.602,1.205-0.602v-15.661C400.886,279.954,400.284,279.351,399.682,279.351z"/>
<circle style="fill:#2F4859;" cx="241.263" cy="57.083" r="5.421"/>
<circle style="fill:#3A556A;" cx="241.263" cy="57.083" r="2.409"/>
<rect x="65.376" y="68.528" style="fill:#EBF0F3;" width="352.376" height="194.56"/>
<rect x="65.376" y="68.528" style="fill:#D5D6DB;" width="72.282" height="194.56"/>
<rect x="65.376" y="68.528" style="fill:#3A556A;" width="352.376" height="22.287"/>
<circle style="fill:#FCD462;" cx="361.733" cy="79.973" r="6.024"/>
<circle style="fill:#44C4A1;" cx="381.611" cy="79.973" r="6.024"/>
<circle style="fill:#E56353;" cx="400.886" cy="79.973" r="6.024"/>
<rect x="65.376" y="255.86" style="fill:#E1E6E9;" width="352.376" height="7.831"/>
<g>
	<path style="fill:#3A556A;" d="M229.818,110.09c-2.409,0-3.614,1.205-3.614,3.614v13.854c0,3.012-1.205,4.819-4.216,5.421
		c3.012,0.602,4.216,2.409,4.216,4.819v14.456c0,1.205,0.602,1.807,1.205,2.409s1.807,0.602,3.614,0.602v6.024h-2.409
		c-5.421,0-8.433-3.012-8.433-8.433v-13.252c0-1.205,0-2.409-0.602-3.012s-1.205-0.602-2.409-0.602h-1.807v-6.024h1.807
		c1.205,0,1.807,0,2.409-0.602c0.602-0.602,0.602-1.807,0.602-3.012v-13.252c0-5.421,3.012-8.433,8.433-8.433h2.409L229.818,110.09
		C230.42,110.09,230.42,110.09,229.818,110.09z"/>
	<path style="fill:#3A556A;" d="M239.456,151.05c-1.205-1.205-1.205-2.409-1.205-3.614s0.602-2.409,1.205-3.012
		c0.602-0.602,1.807-1.205,3.012-1.205c1.205,0,2.409,0.602,3.614,1.205c1.205,0.602,1.205,1.807,1.205,3.012
		s-0.602,2.409-1.205,3.614c-1.205,1.205-1.807,1.205-3.614,1.205C241.263,152.255,240.058,151.653,239.456,151.05z"/>
	<path style="fill:#3A556A;" d="M256.924,151.05c-0.602-1.205-1.205-1.807-1.205-3.614c0-1.205,0.602-2.409,1.205-3.012
		s1.807-1.205,3.012-1.205c1.205,0,2.409,0.602,3.614,1.205s1.205,1.807,1.205,3.012s-0.602,2.409-1.205,3.614
		c-1.205,1.205-1.807,1.205-3.614,1.205C258.731,152.255,257.526,151.653,256.924,151.05z"/>
	<path style="fill:#3A556A;" d="M274.392,151.05c-0.602-1.205-1.205-1.807-1.205-3.614c0-1.205,0.602-2.409,1.205-3.012
		c0.602-0.602,1.807-1.205,3.012-1.205s2.409,0.602,3.614,1.205c1.205,0.602,1.205,1.807,1.205,3.012s-0.602,2.409-1.205,3.614
		c-1.205,1.205-1.807,1.205-3.614,1.205C276.199,152.255,275.597,151.653,274.392,151.05z"/>
	<path style="fill:#3A556A;" d="M291.86,161.29h-2.409v-6.024c1.807,0,3.012,0,3.614-0.602s1.205-1.205,1.205-2.409v-14.456
		c0-3.012,1.205-4.819,4.216-4.819c-3.012-0.602-4.216-2.409-4.216-5.421v-13.854c0-1.205-0.602-2.409-1.205-3.012
		s-1.205-0.602-1.807-0.602l0,0h-1.205v-6.024h2.409c5.421,0,8.433,3.012,8.433,8.433v13.252c0,1.205,0,2.409,0.602,3.012
		s1.205,0.602,2.409,0.602h1.205v6.024h-1.205c-1.205,0-1.807,0-2.409,0.602s-0.602,1.807-0.602,3.012v13.252
		C300.293,158.278,297.884,161.29,291.86,161.29z"/>
</g>
<g>
	<path style="fill:#E56353;" d="M207.531,218.514v-7.831l29.515-13.854v7.228l-22.287,10.24v0l22.287,10.24v7.228L207.531,218.514z"
		/>
	<path style="fill:#E56353;" d="M270.778,188.396h6.024l-27.106,58.428h-6.024L270.778,188.396z"/>
	<path style="fill:#E56353;" d="M312.943,210.683v7.831l-29.515,13.854v-7.228l22.287-10.24v-0.602l-22.287-10.24v-7.228
		L312.943,210.683z"/>
</g>
<g>
</g>
<g>
</g>
<g>
</g>
<g>
</g>
<g>
</g>
<g>
</g>
<g>
</g>
<g>
</g>
<g>
</g>
<g>
</g>
<g>
</g>
<g>
</g>
<g>
</g>
<g>
</g>
<g>
</g>
</svg>
